<svg width="378" height="276" viewBox="0 0 378 276" fill="none" xmlns="http://www.w3.org/2000/svg">
<rect width="378" height="276" rx="12" fill="url(#paint0_linear_26_291)"/>
<rect x="73" y="135" width="233" height="56" rx="9" fill="#DCB1FF"/>
<rect x="61" y="127" width="257" height="56" rx="9" fill="#E2BEFF"/>
<rect x="49.5" y="101" width="280" height="74" rx="12" fill="#E9CFFF"/>
<rect x="72" y="128" width="190" height="20" rx="10" fill="#333333"/>
<path d="M72 138C72 132.477 76.4772 128 82 128H226V148H82C76.4772 148 72 143.523 72 138Z" fill="white"/>
<path d="M72 138C72 132.477 76.4772 128 82 128H226V148H82C76.4772 148 72 143.523 72 138Z" stroke="white"/>
<rect x="214" y="126" width="24" height="24" rx="12" fill="#F59E0B"/>
<path d="M281.969 147.239C280.696 147.239 279.565 147.009 278.577 146.548C277.588 146.088 276.807 145.455 276.233 144.648C275.665 143.841 275.369 142.915 275.347 141.869H279.438C279.472 142.511 279.733 143.028 280.222 143.42C280.71 143.807 281.293 144 281.969 144C282.497 144 282.966 143.884 283.375 143.651C283.784 143.418 284.105 143.091 284.338 142.67C284.571 142.244 284.685 141.756 284.679 141.205C284.685 140.642 284.568 140.151 284.33 139.73C284.097 139.31 283.773 138.983 283.358 138.75C282.949 138.511 282.477 138.392 281.943 138.392C281.438 138.386 280.957 138.497 280.503 138.724C280.054 138.952 279.713 139.261 279.48 139.653L275.756 138.955L276.514 129.545H287.713V132.946H279.983L279.582 137.062H279.685C279.974 136.58 280.44 136.182 281.082 135.869C281.73 135.551 282.466 135.392 283.29 135.392C284.335 135.392 285.267 135.636 286.085 136.125C286.909 136.608 287.557 137.278 288.028 138.136C288.506 138.994 288.744 139.977 288.744 141.085C288.744 142.284 288.46 143.347 287.892 144.273C287.33 145.199 286.54 145.926 285.523 146.455C284.511 146.977 283.327 147.239 281.969 147.239ZM294.164 129.545L297.352 135.06H297.488L300.71 129.545H305.431L300.164 138.273L305.602 147H300.761L297.488 141.426H297.352L294.079 147H289.272L294.684 138.273L289.409 129.545H294.164Z" fill="#333333"/>
<defs>
<linearGradient id="paint0_linear_26_291" x1="189" y1="0" x2="189" y2="276" gradientUnits="userSpaceOnUse">
<stop stop-color="white"/>
<stop offset="1" stop-color="#B75FFF"/>
</linearGradient>
</defs>
</svg>
